<svg width="351" height="372" viewBox="0 0 351 372" fill="none" xmlns="http://www.w3.org/2000/svg">
<path d="M153.84 35.66V38.22H148.98V35.66H153.84ZM155.2 39.38V34.5H147.66V40.6H148.98V39.38H155.2ZM149.14 28.62C148.96 28.04 148.6 27.2 148.2 26.52H154.44C154.16 27.2 153.74 28.04 153.4 28.62H149.14ZM159.94 26.52V25.16H152.02V23.28H150.52V25.16H142.78V26.52H146.6C146.94 27.14 147.32 27.98 147.54 28.62H143.62V41.5H145.02V29.92H148.6C148.4 31.78 147.68 32.7 145.16 33.22C145.42 33.46 145.76 33.96 145.88 34.26C148.8 33.56 149.7 32.32 149.94 29.92H152.32V31.92C152.32 33.16 152.66 33.48 154.06 33.48H156.12C157.18 33.48 157.54 33.08 157.68 31.48C157.3 31.4 156.76 31.22 156.54 31.02C156.48 32.2 156.4 32.34 155.96 32.34H154.22C153.72 32.34 153.64 32.3 153.64 31.9V29.92H157.82V39.68C157.82 40 157.72 40.1 157.38 40.1C157.02 40.12 155.82 40.14 154.52 40.08C154.74 40.46 154.96 41.14 155.02 41.52C156.66 41.52 157.76 41.5 158.42 41.28C159.06 41.04 159.26 40.56 159.26 39.68V28.62H155.04C155.4 28.02 155.8 27.28 156.18 26.52H159.94ZM175.34 29.32H167.4V25.54H175.34V29.32ZM176.84 24.12H165.96V30.74H176.84V24.12ZM168.66 34.28V39.02H164.48V34.28H168.66ZM163.06 41.54H164.48V40.46H168.66V41.36H170.12V32.84H163.06V41.54ZM173.74 39.02V34.28H178.28V39.02H173.74ZM172.3 32.84V41.54H173.74V40.46H178.28V41.4H179.74V32.84H172.3ZM190.744 36.6895H185.236L184.084 40H181.516L186.887 25.7812H189.104L194.484 40H191.906L190.744 36.6895ZM185.93 34.6973H190.051L187.99 28.7988L185.93 34.6973Z" fill="#333333"/>
<path d="M29.52 91.66L28.3 90.88C27.96 90.96 27.48 91 27.04 91H16.78C15.92 91 15.18 90.98 14.64 90.94C14.7 91.38 14.72 91.82 14.72 92.28V96.54C14.72 96.92 14.7 97.34 14.64 97.82H16.46C16.42 97.34 16.4 96.84 16.4 96.54V92.54H27.44C27.24 94.9 26.68 97.46 25.54 99.24C23.9 101.8 21.04 103.54 18.1 104.32L19.46 105.7C22.68 104.66 25.42 102.62 27.04 100.06C28.48 97.8 28.9 94.96 29.26 92.6C29.3 92.4 29.44 91.86 29.52 91.66ZM41.66 93.48L40.2 93.98C40.62 94.88 41.54 97.42 41.76 98.32L43.24 97.8C42.98 96.92 42 94.28 41.66 93.48ZM48.9 94.6L47.18 94.06C46.88 96.62 45.84 99.16 44.42 100.9C42.78 102.96 40.24 104.48 37.92 105.16L39.24 106.5C41.48 105.64 43.92 104.1 45.76 101.74C47.2 99.94 48.06 97.8 48.6 95.6C48.68 95.34 48.76 95.02 48.9 94.6ZM37.02 94.48L35.54 95.06C35.94 95.76 37.02 98.52 37.32 99.56L38.84 99C38.46 97.96 37.42 95.34 37.02 94.48ZM58.74 103.24C58.74 103.98 58.7 104.96 58.6 105.6H60.54C60.46 104.94 60.42 103.86 60.42 103.24C60.42 102.66 60.42 99.64 60.4 96.64C62.62 97.34 66.08 98.68 68.26 99.86L68.94 98.16C66.84 97.1 63.04 95.66 60.4 94.86C60.4 93.6 60.4 92.44 60.4 91.6C60.4 91 60.48 90.14 60.54 89.52H58.58C58.7 90.14 58.74 91.04 58.74 91.6V103.24ZM80.76 88.66C80.44 89.44 79.76 90.6 79.28 91.3L80.28 91.78C80.8 91.12 81.48 90.12 82.06 89.2L80.76 88.66ZM76.14 91.3C75.94 90.6 75.4 89.54 74.84 88.74L73.72 89.2C74.26 90.02 74.78 91.12 74.96 91.82L76.14 91.3ZM84.9 93.32H88.38C88.02 95.8 87.48 97.92 86.62 99.7C85.82 97.84 85.26 95.68 84.88 93.38L84.9 93.32ZM79.44 100.1C79.18 101.18 78.78 102.06 78.18 102.78C77.4 102.4 76.6 102.04 75.8 101.72C76.06 101.2 76.36 100.66 76.64 100.1H79.44ZM91.12 93.32V91.92H85.32C85.6 90.82 85.86 89.66 86.06 88.48L84.54 88.26C84 91.78 82.96 95.12 81.28 97.22C81.62 97.46 82.26 97.96 82.48 98.24C83.02 97.52 83.52 96.68 83.94 95.74C84.4 97.78 84.98 99.64 85.74 101.26C84.76 102.76 83.44 103.96 81.74 104.9C81.12 104.44 80.32 103.92 79.44 103.44C80.12 102.54 80.58 101.44 80.86 100.1H82.6V98.86H77.26C77.5 98.38 77.72 97.9 77.94 97.46L77.6 97.38H78.46V94.4C79.42 95.12 80.68 96.08 81.2 96.56L82.02 95.5C81.48 95.1 79.32 93.74 78.46 93.24V93.14H82.52V91.92H78.46V88.26H77.08V91.92H72.98V93.14H76.68C75.7 94.44 74.18 95.68 72.76 96.32C73.04 96.58 73.4 97.1 73.58 97.44C74.8 96.78 76.08 95.68 77.08 94.5V97.26L76.56 97.14C76.32 97.68 76.04 98.26 75.74 98.86H72.86V100.1H75.12C74.58 101.14 74.04 102.16 73.6 102.92L74.88 103.38L75.2 102.82C75.86 103.1 76.52 103.42 77.16 103.74C76.14 104.48 74.74 104.98 72.9 105.3C73.18 105.58 73.48 106.12 73.58 106.52C75.72 106.06 77.3 105.4 78.46 104.44C79.38 104.98 80.18 105.52 80.8 106.02L81.26 105.54C81.52 105.88 81.78 106.32 81.9 106.58C83.86 105.58 85.36 104.3 86.54 102.74C87.52 104.34 88.74 105.62 90.28 106.52C90.48 106.12 90.96 105.54 91.3 105.26C89.7 104.42 88.44 103.06 87.44 101.34C88.66 99.2 89.42 96.56 89.92 93.32H91.12Z" fill="#333333"/>
<path d="M165.996 113.608C163.756 113.608 161.655 113.181 159.692 112.328C157.751 111.496 156.033 110.344 154.54 108.872C153.068 107.379 151.905 105.661 151.052 103.72C150.22 101.757 149.804 99.656 149.804 97.416C149.804 95.176 150.22 93.0853 151.052 91.144C151.905 89.1813 153.068 87.464 154.54 85.992C156.033 84.4987 157.751 83.336 159.692 82.504C161.655 81.6507 163.756 81.224 165.996 81.224C168.236 81.224 170.327 81.6507 172.268 82.504C174.231 83.336 175.948 84.4987 177.42 85.992C178.913 87.464 180.076 89.1813 180.908 91.144C181.761 93.0853 182.188 95.176 182.188 97.416C182.188 99.656 181.761 101.757 180.908 103.72C180.076 105.661 178.913 107.379 177.42 108.872C175.948 110.344 174.231 111.496 172.268 112.328C170.327 113.181 168.236 113.608 165.996 113.608ZM165.996 112.264C168.044 112.264 169.964 111.88 171.756 111.112C173.548 110.344 175.127 109.277 176.492 107.912C177.857 106.547 178.924 104.968 179.692 103.176C180.46 101.384 180.844 99.464 180.844 97.416C180.844 95.368 180.46 93.448 179.692 91.656C178.924 89.864 177.857 88.2853 176.492 86.92C175.127 85.5547 173.548 84.488 171.756 83.72C169.964 82.952 168.044 82.568 165.996 82.568C163.948 82.568 162.028 82.952 160.236 83.72C158.444 84.488 156.865 85.5547 155.5 86.92C154.135 88.2853 153.068 89.864 152.3 91.656C151.532 93.448 151.148 95.368 151.148 97.416C151.148 99.464 151.532 101.384 152.3 103.176C153.068 104.968 154.135 106.547 155.5 107.912C156.865 109.277 158.444 110.344 160.236 111.112C162.028 111.88 163.948 112.264 165.996 112.264Z" fill="#2F80ED"/>
<path d="M158.672 163.312L163.609 158.281L158.672 153.25L160.984 150.906L165.906 155.938L170.844 150.906L173.156 153.25L168.219 158.281L173.156 163.312L170.844 165.656L165.906 160.641L160.984 165.656L158.672 163.312Z" fill="#2F80ED"/>
<path d="M165.996 233.608C163.756 233.608 161.655 233.181 159.692 232.328C157.751 231.496 156.033 230.344 154.54 228.872C153.068 227.379 151.905 225.661 151.052 223.72C150.22 221.757 149.804 219.656 149.804 217.416C149.804 215.176 150.22 213.085 151.052 211.144C151.905 209.181 153.068 207.464 154.54 205.992C156.033 204.499 157.751 203.336 159.692 202.504C161.655 201.651 163.756 201.224 165.996 201.224C168.236 201.224 170.327 201.651 172.268 202.504C174.231 203.336 175.948 204.499 177.42 205.992C178.913 207.464 180.076 209.181 180.908 211.144C181.761 213.085 182.188 215.176 182.188 217.416C182.188 219.656 181.761 221.757 180.908 223.72C180.076 225.661 178.913 227.379 177.42 228.872C175.948 230.344 174.231 231.496 172.268 232.328C170.327 233.181 168.236 233.608 165.996 233.608ZM165.996 232.264C168.044 232.264 169.964 231.88 171.756 231.112C173.548 230.344 175.127 229.277 176.492 227.912C177.857 226.547 178.924 224.968 179.692 223.176C180.46 221.384 180.844 219.464 180.844 217.416C180.844 215.368 180.46 213.448 179.692 211.656C178.924 209.864 177.857 208.285 176.492 206.92C175.127 205.555 173.548 204.488 171.756 203.72C169.964 202.952 168.044 202.568 165.996 202.568C163.948 202.568 162.028 202.952 160.236 203.72C158.444 204.488 156.865 205.555 155.5 206.92C154.135 208.285 153.068 209.864 152.3 211.656C151.532 213.448 151.148 215.368 151.148 217.416C151.148 219.464 151.532 221.384 152.3 223.176C153.068 224.968 154.135 226.547 155.5 227.912C156.865 229.277 158.444 230.344 160.236 231.112C162.028 231.88 163.948 232.264 165.996 232.264Z" fill="#2F80ED"/>
<path d="M170.25 277.234V279.688H169.719C167.469 279.729 165.677 280.396 164.344 281.688C163.01 282.979 162.24 284.797 162.031 287.141C163.229 285.766 164.865 285.078 166.938 285.078C168.917 285.078 170.495 285.776 171.672 287.172C172.859 288.568 173.453 290.37 173.453 292.578C173.453 294.922 172.812 296.797 171.531 298.203C170.26 299.609 168.552 300.312 166.406 300.312C164.229 300.312 162.464 299.479 161.109 297.812C159.755 296.135 159.078 293.979 159.078 291.344V290.234C159.078 286.047 159.969 282.849 161.75 280.641C163.542 278.422 166.203 277.286 169.734 277.234H170.25ZM166.453 287.484C165.464 287.484 164.552 287.781 163.719 288.375C162.885 288.969 162.307 289.714 161.984 290.609V291.672C161.984 293.547 162.406 295.057 163.25 296.203C164.094 297.349 165.146 297.922 166.406 297.922C167.708 297.922 168.729 297.443 169.469 296.484C170.219 295.526 170.594 294.271 170.594 292.719C170.594 291.156 170.214 289.896 169.453 288.938C168.703 287.969 167.703 287.484 166.453 287.484Z" fill="#333333"/>
<path d="M282.883 281.033C282.883 282.551 282.503 283.898 281.744 285.072C280.985 286.247 279.939 287.185 278.607 287.887C280.126 288.617 281.329 289.627 282.217 290.916C283.105 292.191 283.549 293.695 283.549 295.428C283.549 298.206 282.604 300.405 280.713 302.023C278.822 303.628 276.251 304.43 273 304.43C269.749 304.43 267.171 303.62 265.266 302.002C263.361 300.383 262.408 298.192 262.408 295.428C262.408 293.695 262.852 292.184 263.74 290.895C264.628 289.605 265.824 288.603 267.328 287.887C265.996 287.185 264.951 286.247 264.191 285.072C263.447 283.898 263.074 282.551 263.074 281.033C263.074 278.369 263.962 276.249 265.738 274.674C267.514 273.084 269.928 272.289 272.979 272.289C276.015 272.289 278.421 273.077 280.197 274.652C281.988 276.214 282.883 278.34 282.883 281.033ZM277.318 294.977C277.318 293.616 276.924 292.527 276.137 291.711C275.349 290.895 274.289 290.486 272.957 290.486C271.639 290.486 270.587 290.895 269.799 291.711C269.011 292.513 268.617 293.602 268.617 294.977C268.617 296.309 269.004 297.383 269.777 298.199C270.551 299.016 271.625 299.424 273 299.424C274.346 299.424 275.399 299.03 276.158 298.242C276.932 297.454 277.318 296.366 277.318 294.977ZM276.674 281.334C276.674 280.117 276.352 279.143 275.707 278.412C275.062 277.667 274.153 277.295 272.979 277.295C271.818 277.295 270.916 277.653 270.271 278.369C269.627 279.085 269.305 280.074 269.305 281.334C269.305 282.58 269.627 283.583 270.271 284.342C270.916 285.101 271.826 285.48 273 285.48C274.174 285.48 275.077 285.101 275.707 284.342C276.352 283.583 276.674 282.58 276.674 281.334Z" fill="#FD7E14"/>
<path d="M260.116 109L273.012 86.696L285.876 109H260.116ZM262.324 107.72H283.668L273.012 89.224L262.324 107.72Z" fill="#2F80ED"/>
<path d="M272.996 173.608C270.756 173.608 268.655 173.181 266.692 172.328C264.751 171.496 263.033 170.344 261.54 168.872C260.068 167.379 258.905 165.661 258.052 163.72C257.22 161.757 256.804 159.656 256.804 157.416C256.804 155.176 257.22 153.085 258.052 151.144C258.905 149.181 260.068 147.464 261.54 145.992C263.033 144.499 264.751 143.336 266.692 142.504C268.655 141.651 270.756 141.224 272.996 141.224C275.236 141.224 277.327 141.651 279.268 142.504C281.231 143.336 282.948 144.499 284.42 145.992C285.913 147.464 287.076 149.181 287.908 151.144C288.761 153.085 289.188 155.176 289.188 157.416C289.188 159.656 288.761 161.757 287.908 163.72C287.076 165.661 285.913 167.379 284.42 168.872C282.948 170.344 281.231 171.496 279.268 172.328C277.327 173.181 275.236 173.608 272.996 173.608ZM272.996 172.264C275.044 172.264 276.964 171.88 278.756 171.112C280.548 170.344 282.127 169.277 283.492 167.912C284.857 166.547 285.924 164.968 286.692 163.176C287.46 161.384 287.844 159.464 287.844 157.416C287.844 155.368 287.46 153.448 286.692 151.656C285.924 149.864 284.857 148.285 283.492 146.92C282.127 145.555 280.548 144.488 278.756 143.72C276.964 142.952 275.044 142.568 272.996 142.568C270.948 142.568 269.028 142.952 267.236 143.72C265.444 144.488 263.865 145.555 262.5 146.92C261.135 148.285 260.068 149.864 259.3 151.656C258.532 153.448 258.148 155.368 258.148 157.416C258.148 159.464 258.532 161.384 259.3 163.176C260.068 164.968 261.135 166.547 262.5 167.912C263.865 169.277 265.444 170.344 267.236 171.112C269.028 171.88 270.948 172.264 272.996 172.264Z" fill="#2F80ED"/>
<path d="M273.507 230.088C271.758 230.088 270.115 229.757 268.579 229.096C267.064 228.456 265.72 227.56 264.547 226.408C263.395 225.235 262.488 223.88 261.827 222.344C261.166 220.808 260.835 219.165 260.835 217.416C260.835 215.667 261.166 214.024 261.827 212.488C262.488 210.952 263.395 209.608 264.547 208.456C265.72 207.283 267.064 206.376 268.579 205.736C270.115 205.075 271.758 204.744 273.507 204.744C275.256 204.744 276.899 205.075 278.435 205.736C279.971 206.376 281.315 207.283 282.467 208.456C283.64 209.608 284.547 210.952 285.187 212.488C285.848 214.024 286.179 215.667 286.179 217.416C286.179 219.165 285.848 220.808 285.187 222.344C284.547 223.88 283.64 225.235 282.467 226.408C281.315 227.56 279.971 228.456 278.435 229.096C276.899 229.757 275.256 230.088 273.507 230.088ZM273.507 227.88C274.958 227.88 276.312 227.613 277.571 227.08C278.83 226.525 279.939 225.768 280.899 224.808C281.859 223.848 282.606 222.739 283.139 221.48C283.694 220.221 283.971 218.867 283.971 217.416C283.971 215.965 283.694 214.611 283.139 213.352C282.606 212.093 281.859 210.984 280.899 210.024C279.939 209.064 278.83 208.317 277.571 207.784C276.312 207.229 274.958 206.952 273.507 206.952C272.056 206.952 270.702 207.229 269.443 207.784C268.184 208.317 267.075 209.064 266.115 210.024C265.155 210.984 264.398 212.093 263.843 213.352C263.31 214.611 263.043 215.965 263.043 217.416C263.043 218.867 263.31 220.221 263.843 221.48C264.398 222.739 265.155 223.848 266.115 224.808C267.075 225.768 268.184 226.525 269.443 227.08C270.702 227.613 272.056 227.88 273.507 227.88ZM273.507 226.344C272.27 226.344 271.107 226.12 270.019 225.672C268.952 225.203 268.003 224.563 267.171 223.752C266.36 222.92 265.72 221.971 265.251 220.904C264.803 219.816 264.579 218.653 264.579 217.416C264.579 216.179 264.803 215.027 265.251 213.96C265.72 212.872 266.36 211.923 267.171 211.112C268.003 210.28 268.952 209.64 270.019 209.192C271.107 208.723 272.27 208.488 273.507 208.488C274.744 208.488 275.907 208.723 276.995 209.192C278.083 209.64 279.032 210.28 279.843 211.112C280.675 211.923 281.315 212.872 281.763 213.96C282.232 215.027 282.467 216.179 282.467 217.416C282.467 218.653 282.232 219.816 281.763 220.904C281.315 221.971 280.675 222.92 279.843 223.752C279.032 224.563 278.083 225.203 276.995 225.672C275.907 226.12 274.744 226.344 273.507 226.344ZM273.507 224.136C274.766 224.136 275.896 223.837 276.899 223.24C277.923 222.643 278.734 221.832 279.331 220.808C279.95 219.784 280.259 218.653 280.259 217.416C280.259 216.157 279.95 215.027 279.331 214.024C278.734 213 277.923 212.189 276.899 211.592C275.896 210.995 274.766 210.696 273.507 210.696C272.27 210.696 271.139 210.995 270.115 211.592C269.091 212.189 268.28 213 267.683 214.024C267.086 215.027 266.787 216.157 266.787 217.416C266.787 218.653 267.086 219.784 267.683 220.808C268.28 221.832 269.091 222.643 270.115 223.24C271.139 223.837 272.27 224.136 273.507 224.136Z" fill="#2F80ED"/>
<path d="M36.68 159.32V157.8H41.2V159.32H36.68ZM36.68 155.3H41.2V156.8H36.68V155.3ZM47.42 155.3V156.8H42.66V155.3H47.42ZM47.42 159.32H42.66V157.8H47.42V159.32ZM42.66 164.68V162.96H49.66V161.76H42.66V160.38H48.92V154.22H42.66V153.02H50.8V151.8H42.66V150.26C45 150.08 47.18 149.86 48.88 149.54L48.08 148.38C44.94 148.96 39.34 149.32 34.72 149.44C34.86 149.76 35.02 150.26 35.04 150.62C37 150.58 39.12 150.5 41.2 150.36V151.8H33.22V153.02H41.2V154.22H35.22V160.38H41.2V161.76H34.62V162.96H41.2V164.68H33.12V165.9H50.92V164.68H42.66ZM62.48 150.82C62.62 151.28 62.82 151.88 63.06 152.62C60.88 152.78 58.1 152.74 55.16 152.38L55.2 153.98C58.34 154.22 61.22 154.24 63.6 154.02C64.28 155.68 65.24 157.44 66.02 158.58C65.3 158.5 63.82 158.38 62.7 158.28L62.58 159.62C64.02 159.72 66.44 159.94 67.4 160.16L68.22 159.04C67.92 158.7 67.62 158.36 67.34 157.98C66.6 156.94 65.72 155.4 65.1 153.86C66.44 153.68 68.02 153.4 69.24 153.04L69.06 151.48C67.7 151.94 66.04 152.26 64.6 152.46C64.2 151.3 63.84 149.98 63.68 149.04L61.98 149.26C62.16 149.78 62.34 150.4 62.48 150.82ZM58.24 158.76L56.68 158.4C56.12 159.58 55.72 160.62 55.72 161.72C55.72 164.44 58.12 165.82 61.92 165.84C64.14 165.84 65.84 165.62 67.08 165.4L67.16 163.8C65.76 164.12 64.04 164.32 62 164.3C59.04 164.28 57.3 163.44 57.3 161.54C57.3 160.58 57.64 159.72 58.24 158.76Z" fill="#333333"/>
<path d="M16.06 210.38V212.04C16.58 212 17.24 211.98 17.9 211.98H24.8C25.38 211.98 26.08 212 26.66 212.04V210.38C26.08 210.46 25.38 210.5 24.8 210.5H17.88C17.24 210.5 16.64 210.44 16.06 210.38ZM13.7 215.4V217.06C14.24 217.02 14.82 217.02 15.42 217.02H21.42C21.36 218.92 21.14 220.6 20.26 221.98C19.48 223.24 18.04 224.4 16.48 225.04L17.96 226.14C19.66 225.26 21.18 223.82 21.9 222.5C22.7 221 23.02 219.18 23.08 217.02H28.52C29 217.02 29.64 217.04 30.08 217.06V215.4C29.6 215.48 28.94 215.5 28.52 215.5H15.42C14.8 215.5 14.24 215.46 13.7 215.4ZM27.7 208.76L26.64 209.2C27.18 209.96 27.86 211.16 28.26 211.98L29.34 211.5C28.94 210.68 28.2 209.46 27.7 208.76ZM29.9 207.96L28.84 208.4C29.42 209.16 30.06 210.28 30.5 211.16L31.58 210.68C31.2 209.94 30.42 208.68 29.9 207.96ZM47.94 209.74L46.98 210.04C47.36 210.8 47.82 212 48.12 212.86L49.1 212.52C48.84 211.7 48.3 210.46 47.94 209.74ZM49.92 209.14L48.96 209.44C49.36 210.18 49.82 211.34 50.14 212.22L51.12 211.9C50.84 211.08 50.3 209.86 49.92 209.14ZM46.04 216.16V215.46H48.24C49.12 215.46 49.84 215.5 50.06 215.52V213.82C49.78 213.88 49.12 213.94 48.22 213.94H46.04V211.44C46.04 210.64 46.12 210 46.14 209.8H44.34C44.36 209.98 44.42 210.64 44.42 211.44V213.94H38.74V211.36C38.74 210.68 38.8 210.1 38.82 209.92H37.04C37.1 210.38 37.14 210.94 37.14 211.38V213.94H34.98C34.14 213.94 33.16 213.84 32.98 213.8V215.54C33.2 215.52 34.1 215.46 34.98 215.46H37.14V218.7C37.14 219.46 37.06 220.32 37.04 220.5H38.82C38.8 220.32 38.74 219.44 38.74 218.7V215.46H44.42V216.3C44.42 221.9 42.62 223.62 38.98 225L40.32 226.28C44.88 224.24 46.04 221.48 46.04 216.16ZM53.72 217.78L54.52 219.34C57.3 218.48 60.04 217.28 62.14 216.08V223.48C62.14 224.24 62.08 225.24 62.02 225.62H63.98C63.9 225.22 63.86 224.24 63.86 223.48V215.04C65.9 213.68 67.74 212.16 69.26 210.58L67.92 209.34C66.54 211 64.54 212.74 62.46 214.04C60.24 215.44 57.18 216.84 53.72 217.78ZM76.54 210.34L75.4 211.56C76.88 212.56 79.38 214.7 80.38 215.74L81.64 214.48C80.52 213.36 77.96 211.28 76.54 210.34ZM74.82 223.74L75.88 225.38C79.22 224.76 81.74 223.54 83.74 222.28C86.76 220.38 89.1 217.66 90.46 215.16L89.5 213.46C88.34 215.92 85.9 218.88 82.82 220.82C80.92 222 78.32 223.22 74.82 223.74Z" fill="#333333"/>
<path d="M39.64 279.96H33.88V281.16H39.64V279.96ZM40.38 282.58H32.84V283.8H40.38V282.58ZM38.38 291.82V295.18H35.04V291.82H38.38ZM39.68 290.6H33.74V297.3H35.04V296.38H39.68V290.6ZM33.78 289.12H39.7V287.92H33.78V289.12ZM33.78 286.46H39.7V285.28H33.78V286.46ZM51.18 288.96H46.4V281.76H50.78V280.38H40.8V281.76H44.94V288.96H40.02V290.36H44.94V297.5H46.4V290.36H51.18V288.96ZM41.28 283.18C41.78 284.72 42.22 286.76 42.32 288.1L43.6 287.78C43.48 286.46 43.04 284.44 42.48 282.86L41.28 283.18ZM48.76 288.08C49.3 286.8 49.88 284.74 50.36 283.06L48.96 282.7C48.68 284.24 48.1 286.42 47.62 287.74L48.76 288.08ZM57.12 279.32C56.06 282.3 54.32 285.22 52.46 287.1C52.7 287.44 53.14 288.18 53.28 288.5C53.92 287.82 54.54 287.04 55.14 286.18V297.5H56.56V283.88C57.3 282.56 57.94 281.14 58.48 279.74L57.12 279.32ZM65.72 285.88H63.44V282.62H65.72V285.88ZM69.34 294.58H67.02V287.22H69.34V294.58ZM59.92 287.22H62.14V294.58H59.92V287.22ZM65.72 287.22V294.58H63.44V287.22H65.72ZM70.94 282.62V281.28H58.3V282.62H62.04V285.88H58.56V297.2H59.92V295.9H69.34V297.08H70.78V285.88H67.14V282.62H70.94Z" fill="#333333"/>
<path d="M257.691 35.66V38.22H252.831V35.66H257.691ZM259.051 39.38V34.5H251.511V40.6H252.831V39.38H259.051ZM252.991 28.62C252.811 28.04 252.451 27.2 252.051 26.52H258.291C258.011 27.2 257.591 28.04 257.251 28.62H252.991ZM263.791 26.52V25.16H255.871V23.28H254.371V25.16H246.631V26.52H250.451C250.791 27.14 251.171 27.98 251.391 28.62H247.471V41.5H248.871V29.92H252.451C252.251 31.78 251.531 32.7 249.011 33.22C249.271 33.46 249.611 33.96 249.731 34.26C252.651 33.56 253.551 32.32 253.791 29.92H256.171V31.92C256.171 33.16 256.511 33.48 257.911 33.48H259.971C261.031 33.48 261.391 33.08 261.531 31.48C261.151 31.4 260.611 31.22 260.391 31.02C260.331 32.2 260.251 32.34 259.811 32.34H258.071C257.571 32.34 257.491 32.3 257.491 31.9V29.92H261.671V39.68C261.671 40 261.571 40.1 261.231 40.1C260.871 40.12 259.671 40.14 258.371 40.08C258.591 40.46 258.811 41.14 258.871 41.52C260.511 41.52 261.611 41.5 262.271 41.28C262.911 41.04 263.111 40.56 263.111 39.68V28.62H258.891C259.251 28.02 259.651 27.28 260.031 26.52H263.791ZM279.191 29.32H271.251V25.54H279.191V29.32ZM280.691 24.12H269.811V30.74H280.691V24.12ZM272.511 34.28V39.02H268.331V34.28H272.511ZM266.911 41.54H268.331V40.46H272.511V41.36H273.971V32.84H266.911V41.54ZM277.591 39.02V34.28H282.131V39.02H277.591ZM276.151 32.84V41.54H277.591V40.46H282.131V41.4H283.591V32.84H276.151ZM286.637 40V25.7812H291.51C293.118 25.7812 294.342 26.1035 295.182 26.748C296.021 27.3926 296.441 28.3529 296.441 29.6289C296.441 30.2799 296.266 30.8659 295.914 31.3867C295.562 31.9076 295.048 32.3112 294.371 32.5977C295.139 32.806 295.732 33.1999 296.148 33.7793C296.572 34.3522 296.783 35.0423 296.783 35.8496C296.783 37.1842 296.354 38.2096 295.494 38.9258C294.641 39.6419 293.417 40 291.822 40H286.637ZM289.107 33.584V38.0273H291.852C292.626 38.0273 293.232 37.8353 293.668 37.4512C294.104 37.0671 294.322 36.5332 294.322 35.8496C294.322 34.3717 293.567 33.6165 292.057 33.584H289.107ZM289.107 31.7676H291.529C292.298 31.7676 292.896 31.5951 293.326 31.25C293.762 30.8984 293.98 30.4036 293.98 29.7656C293.98 29.0625 293.779 28.5547 293.375 28.2422C292.978 27.9297 292.356 27.7734 291.51 27.7734H289.107V31.7676Z" fill="#333333"/>
<line y1="60.5" x2="351" y2="60.5" stroke="#CCCCCC"/>
<line y1="255.5" x2="351" y2="255.5" stroke="#CCCCCC" stroke-width="3"/>
<path d="M247.297 368.125C246.453 369.135 245.26 369.922 243.719 370.484C242.177 371.036 240.469 371.312 238.594 371.312C236.625 371.312 234.896 370.885 233.406 370.031C231.927 369.167 230.781 367.917 229.969 366.281C229.167 364.646 228.755 362.724 228.734 360.516V358.969C228.734 356.698 229.115 354.734 229.875 353.078C230.646 351.411 231.75 350.141 233.188 349.266C234.635 348.38 236.328 347.938 238.266 347.938C240.964 347.938 243.073 348.583 244.594 349.875C246.115 351.156 247.016 353.026 247.297 355.484H242.734C242.526 354.182 242.062 353.229 241.344 352.625C240.635 352.021 239.656 351.719 238.406 351.719C236.812 351.719 235.599 352.318 234.766 353.516C233.932 354.714 233.51 356.495 233.5 358.859V360.312C233.5 362.698 233.953 364.5 234.859 365.719C235.766 366.938 237.094 367.547 238.844 367.547C240.604 367.547 241.859 367.172 242.609 366.422V362.5H238.344V359.047H247.297V368.125ZM250.109 362.391C250.109 360.714 250.432 359.219 251.078 357.906C251.724 356.594 252.651 355.578 253.859 354.859C255.078 354.141 256.49 353.781 258.094 353.781C260.375 353.781 262.234 354.479 263.672 355.875C265.12 357.271 265.927 359.167 266.094 361.562L266.125 362.719C266.125 365.312 265.401 367.396 263.953 368.969C262.505 370.531 260.562 371.312 258.125 371.312C255.688 371.312 253.74 370.531 252.281 368.969C250.833 367.406 250.109 365.281 250.109 362.594V362.391ZM254.625 362.719C254.625 364.323 254.927 365.552 255.531 366.406C256.135 367.25 257 367.672 258.125 367.672C259.219 367.672 260.073 367.255 260.688 366.422C261.302 365.578 261.609 364.234 261.609 362.391C261.609 360.818 261.302 359.599 260.688 358.734C260.073 357.87 259.208 357.438 258.094 357.438C256.99 357.438 256.135 357.87 255.531 358.734C254.927 359.589 254.625 360.917 254.625 362.719ZM268.203 362.391C268.203 360.714 268.526 359.219 269.172 357.906C269.818 356.594 270.745 355.578 271.953 354.859C273.172 354.141 274.583 353.781 276.188 353.781C278.469 353.781 280.328 354.479 281.766 355.875C283.214 357.271 284.021 359.167 284.188 361.562L284.219 362.719C284.219 365.312 283.495 367.396 282.047 368.969C280.599 370.531 278.656 371.312 276.219 371.312C273.781 371.312 271.833 370.531 270.375 368.969C268.927 367.406 268.203 365.281 268.203 362.594V362.391ZM272.719 362.719C272.719 364.323 273.021 365.552 273.625 366.406C274.229 367.25 275.094 367.672 276.219 367.672C277.312 367.672 278.167 367.255 278.781 366.422C279.396 365.578 279.703 364.234 279.703 362.391C279.703 360.818 279.396 359.599 278.781 358.734C278.167 357.87 277.302 357.438 276.188 357.438C275.083 357.438 274.229 357.87 273.625 358.734C273.021 359.589 272.719 360.917 272.719 362.719ZM286.297 362.422C286.297 359.786 286.885 357.688 288.062 356.125C289.25 354.562 290.87 353.781 292.922 353.781C294.568 353.781 295.927 354.396 297 355.625V347H301.531V371H297.453L297.234 369.203C296.109 370.609 294.661 371.312 292.891 371.312C290.901 371.312 289.302 370.531 288.094 368.969C286.896 367.396 286.297 365.214 286.297 362.422ZM290.812 362.75C290.812 364.333 291.089 365.547 291.641 366.391C292.193 367.234 292.995 367.656 294.047 367.656C295.443 367.656 296.427 367.068 297 365.891V359.219C296.438 358.042 295.464 357.453 294.078 357.453C291.901 357.453 290.812 359.219 290.812 362.75ZM309.625 364.016H305.875L305.344 348.25H310.156L309.625 364.016ZM307.75 366.484C308.51 366.484 309.12 366.708 309.578 367.156C310.047 367.604 310.281 368.177 310.281 368.875C310.281 369.562 310.047 370.13 309.578 370.578C309.12 371.026 308.51 371.25 307.75 371.25C307 371.25 306.391 371.026 305.922 370.578C305.464 370.13 305.234 369.562 305.234 368.875C305.234 368.188 305.464 367.62 305.922 367.172C306.391 366.714 307 366.484 307.75 366.484ZM318.344 364.016H314.594L314.062 348.25H318.875L318.344 364.016ZM316.469 366.484C317.229 366.484 317.839 366.708 318.297 367.156C318.766 367.604 319 368.177 319 368.875C319 369.562 318.766 370.13 318.297 370.578C317.839 371.026 317.229 371.25 316.469 371.25C315.719 371.25 315.109 371.026 314.641 370.578C314.182 370.13 313.953 369.562 313.953 368.875C313.953 368.188 314.182 367.62 314.641 367.172C315.109 366.714 315.719 366.484 316.469 366.484Z" fill="#FD7E14"/>
<rect x="220.5" y="1.5" width="106" height="325" rx="6.5" stroke="#FD7E14" stroke-width="3"/>
</svg>
