<svg width="242" height="72" viewBox="0 0 242 72" fill="none" xmlns="http://www.w3.org/2000/svg">
<path d="M21.7969 31.625V53.0703C23.25 52.7891 25.4766 52.3438 28.4766 51.7344C31.4766 51.125 33.7031 50.6797 35.1562 50.3984L36.1406 60.7344C33 61.4375 29.5781 62.1875 25.875 62.9844C22.1719 63.7812 18.2578 64.6016 14.1328 65.4453C10.0078 66.2891 6.96094 66.9219 4.99219 67.3438L2.10938 56.5156C4.40625 56.1875 7.35938 55.7188 10.9688 55.1094V1.53125H21.7969V21.3594H35.1562V31.625H21.7969ZM52.0312 57.8516H57.9375C59.1094 57.8516 59.8828 57.1016 60.2578 55.6016C60.6797 54.0547 61.0078 50.8203 61.2422 45.8984C63.9141 47.9609 67.1953 49.4609 71.0859 50.3984C70.5703 56.8672 69.4453 61.4141 67.7109 64.0391C66.0234 66.7109 63.1406 68.0469 59.0625 68.0469H50.3438C45.7969 68.0469 42.7031 66.9922 41.0625 64.8828C39.4219 62.7734 38.6016 58.8125 38.6016 53V1.53125H49.4297V23.3984C54.4922 21.0078 58.9453 18.6172 62.7891 16.2266L69.8906 25.4375C64.5469 27.9219 57.7266 30.6406 49.4297 33.5938V53.0703C49.4297 55.2266 49.5703 56.5625 49.8516 57.0781C50.1328 57.5938 50.8594 57.8516 52.0312 57.8516ZM117.647 32.1172L122.78 30.9922C123.764 34.8828 125.123 38.4688 126.858 41.75C128.405 38.5625 129.623 34.9297 130.514 30.8516L136.139 32.1172C134.217 28.0859 131.85 24.0547 129.037 20.0234L134.241 17.4922H117.295L124.608 19.3906C122.873 24.125 120.553 28.3672 117.647 32.1172ZM99.5766 28.8125V25.9297H96.4828V28.8125H99.5766ZM99.5766 38.4453V35.4922H96.4828V38.4453H99.5766ZM86.6391 35.4922V38.4453H89.5922V35.4922H86.6391ZM86.6391 25.9297V28.8125H89.5922V25.9297H86.6391ZM146.264 30.8516L139.795 34.0859C138.155 40.6953 135.952 46.3203 133.186 50.9609C137.077 55.2266 141.6 58.3906 146.756 60.4531C145.631 61.4375 144.389 62.75 143.03 64.3906C141.717 66.0781 140.709 67.5781 140.006 68.8906C135.037 66.5469 130.678 63.3125 126.928 59.1875C122.897 63.2656 117.905 66.5703 111.952 69.1016C111.295 67.8828 110.311 66.4297 108.998 64.7422C107.686 63.0547 106.537 61.7656 105.553 60.875C111.647 58.6719 116.756 55.2969 120.881 50.75C118.537 46.7656 116.405 41.7734 114.483 35.7734L113.78 36.5469C111.811 34.7188 109.655 33.0547 107.311 31.5547V45.6172H97.6781V48.9922H109.139V58.0625H97.6781V68.75H88.3969V58.0625H77.3578V48.9922H88.3969V45.6172H79.2562V18.8281H88.3969V15.8047H78.1312V6.875H88.3969V0.546875H97.6781V6.875H107.662V15.8047H97.6781V18.8281H107.311V29.1641C110.498 26.1172 112.983 22.2266 114.764 17.4922H108.787V8.07031H121.936V0.335938H132.342V8.07031H145.139V17.4922H138.248C142.045 22.6484 144.717 27.1016 146.264 30.8516Z" fill="#2F80ED"/>
<path d="M152.16 26.7344C155.676 26.8125 158.645 26.8516 161.066 26.8516C163.488 26.8125 165.988 26.7539 168.566 26.6758C167.98 24.2148 167.512 22.2617 167.16 20.8164C166.848 19.332 166.672 18.5703 166.633 18.5312H175.891C175.891 18.6094 175.969 19.0977 176.125 19.9961C176.32 20.8555 176.535 21.8711 176.77 23.043C177.004 24.2148 177.258 25.2695 177.531 26.207C179.68 26.1289 181.789 25.9727 183.859 25.7383C185.969 25.4648 188.391 25.1523 191.125 24.8008V34C188.977 34.3125 187.062 34.5664 185.383 34.7617C183.703 34.957 181.809 35.1328 179.699 35.2891C180.949 39.8984 181.926 43.3945 182.629 45.7773C183.332 48.1602 183.684 49.3516 183.684 49.3516H174.074C173.723 47.7109 173.234 45.6797 172.609 43.2578C172.023 40.7969 171.418 38.2969 170.793 35.7578C168.957 35.8359 166.926 35.8945 164.699 35.9336C162.473 35.9336 160.422 35.9336 158.547 35.9336C156.672 35.9336 154.543 35.9336 152.16 35.9336V26.7344ZM158.43 42.5547H167.922C166.555 44.7812 165.48 46.6562 164.699 48.1797C163.957 49.6641 163.586 51.0898 163.586 52.457C163.586 53.3555 163.762 54.1172 164.113 54.7422C164.465 55.3672 165.188 55.9336 166.281 56.4414C167.375 56.9492 169.23 57.2227 171.848 57.2617C174.816 57.3008 177.531 57.1836 179.992 56.9102C182.453 56.5977 184.426 56.2852 185.91 55.9727C187.434 55.6602 188.215 55.5039 188.254 55.5039V65.3477C186.457 65.543 184.582 65.7578 182.629 65.9922C180.676 66.2266 176.945 66.3828 171.438 66.4609C165.812 66.3438 161.496 65.0938 158.488 62.7109C155.52 60.2891 154.113 57.2617 154.27 53.6289C154.426 51.3242 154.836 49.3516 155.5 47.7109C156.164 46.0703 157.141 44.3516 158.43 42.5547ZM210.344 18.9414H220.246C219.113 22.1445 218.078 25.1328 217.141 27.9062C216.242 30.6406 215.246 33.8242 214.152 37.457C214.348 37.1055 215.324 36.5586 217.082 35.8164C218.84 35.0742 220.637 35.0938 222.473 35.875C224.348 36.6562 225.48 38.1602 225.871 40.3867C226.301 42.5742 226.457 44.8398 226.34 47.1836C226.223 49.4102 226.262 51.3828 226.457 53.1016C226.652 54.7812 227.199 55.6797 228.098 55.7969C228.879 55.7969 229.797 55.3477 230.852 54.4492C231.906 53.5508 233 52.5156 234.133 51.3438C235.305 50.1328 236.281 49.0781 237.062 48.1797C237.844 47.2422 238.254 46.7734 238.293 46.7734V59.3125C237.199 60.8359 236.125 62.0859 235.07 63.0625C234.055 64.0391 232.844 64.8789 231.438 65.582C230.031 66.3242 228.488 66.6953 226.809 66.6953C223.332 66.5 220.949 65.0547 219.66 62.3594C218.41 59.6641 217.883 56.1094 218.078 51.6953C218.234 49.4688 218.195 47.7109 217.961 46.4219C217.766 45.0938 216.887 44.625 215.324 45.0156C214.387 45.2891 213.508 45.8945 212.688 46.832C211.906 47.7695 211.301 48.8438 210.871 50.0547C210.441 51.2656 210.051 52.4375 209.699 53.5703C209.191 55.6016 208.664 57.6914 208.117 59.8398C207.609 61.9492 207.121 64 206.652 65.9922H197.395C198.684 60.5234 199.914 55.5234 201.086 50.9922C202.258 46.4609 203.625 41.4414 205.188 35.9336C206.75 30.3867 208.469 24.7227 210.344 18.9414Z" fill="#2F80ED"/>
</svg>
